<svg height="512pt" viewBox="0 0 512 512" width="512pt" xmlns="http://www.w3.org/2000/svg" xmlns:xlink="http://www.w3.org/1999/xlink"><linearGradient id="a" gradientUnits="userSpaceOnUse" x1="0" x2="512" y1="256" y2="256"><stop offset="0" stop-color="#00f38d"/><stop offset="1" stop-color="#009eff"/></linearGradient><path d="m512 256c0 141.386719-114.613281 256-256 256s-256-114.613281-256-256 114.613281-256 256-256 256 114.613281 256 256zm0 0" fill="url(#a)"/><g fill="#fff"><path d="m423.4375 243.046875c0-46.324219-17.628906-83.546875-50.984375-107.648437-28.710937-20.742188-69.125-31.707032-116.867187-31.707032-42.144532 0-78.566407 8.546875-106.28125 24.816406l-39.53125-39.53125-21.210938 21.210938 312.832031 312.835938 21.214844-21.214844-50.722656-50.71875c33.804687-24.125 51.550781-61.082032 51.550781-108.042969zm-167.851562-109.355469c51.480468 0 137.851562 14.207032 137.851562 109.355469 0 38.980469-14.5 68.011719-43.140625 86.453125l-178.882813-178.882812c22.21875-11.113282 50.914063-16.925782 84.171876-16.925782zm0 0"/><path d="m255.585938 354.449219c-14.375 0-28.089844-1.089844-40.765626-3.246094l-7.210937-1.222656-4.773437 5.542969c-10.253907 11.910156-22.097657 18.273437-32.144532 21.660156 2.609375-7.042969 5.25-15.492188 7.382813-25.121094l2.199219-9.925781-9.113282-4.496094c-36.8125-18.15625-55.476562-49.984375-55.476562-94.59375 0-22.621094 4.832031-41.996094 14.394531-57.960937l-18.765625-18.765626c-3.050781 4.492188-5.800781 9.199219-8.210938 14.132813-8.84375 18.089844-13.328124 39.148437-13.328124 62.59375 0 50.703125 20.910156 89.492187 60.632812 112.824219-5.492188 19.386718-12.625 31.132812-12.6875 31.238281l-12.296875 19.769531 23.289063.03125h.066406.207031c7.351563 0 41.070313-1.585937 68.484375-29.085937 12.085938 1.679687 24.875 2.53125 38.113281 2.53125 22.839844 0 43.738281-2.433594 62.507813-7.261719l-21.894532-21.894531c-12.648437 2.148437-26.265624 3.25-40.609374 3.25zm0 0"/></g></svg>